<?xml version="1.0" encoding="utf-8"?>
<!-- Generator: Adobe Illustrator 24.2.1, SVG Export Plug-In . SVG Version: 6.00 Build 0)  -->
<svg version="1.1" id="Layer_1" xmlns="http://www.w3.org/2000/svg" xmlns:xlink="http://www.w3.org/1999/xlink" x="0px" y="0px"
	 viewBox="0 0 1292.4 1296" style="enable-background:new 0 0 1292.4 1296;" xml:space="preserve">
<style type="text/css">
	.st0{fill:#0000FF;}
	.st1{fill:#FFFFFF;}
</style>
<g>
	<path class="st0" d="M-3.6,962.53c0-210.53,0-421.05,0-631.58c2.1-13.22,3.49-26.6,6.42-39.63
		C35.77,144.76,124.49,50.79,269.32,10.59C288.19,5.35,307.98,3.45,327.35,0C537.87,0,748.4,0,958.93,0
		c4.09,0.76,8.15,1.78,12.27,2.23c35.36,3.89,69.97,11.72,102.04,26.88c138.94,65.7,213.84,175.7,215.99,329.55
		c2.69,191.96,0.79,383.98,0.57,575.98c-0.09,74.41-20.11,143.35-63.35,204c-73.3,102.82-174.23,154.38-300.47,154.71
		c-188.63,0.49-377.26,0.36-565.88-0.16c-24.29-0.07-49.15-1.35-72.75-6.56C140.88,1254.29,47.2,1165.22,7.01,1020.65
		C1.75,1001.76-0.15,981.92-3.6,962.53z M1175.2,646.93c0-93.45,0.06-186.91-0.04-280.36c-0.03-29.58-2.95-58.8-12.94-86.91
		c-36.54-102.85-125.12-164.79-236.96-164.93c-188.17-0.23-376.34-0.59-564.5,0.51c-28.17,0.17-57.61,4.03-84.19,12.96
		C173.16,162.93,111.3,252.58,111.15,364.28c-0.27,188.17-0.13,376.34-0.01,564.51c0.02,29.15,3.23,57.9,13.16,85.6
		c36.51,101.9,124.25,163.98,234.82,164.27c189.43,0.5,378.86,0.36,568.29,0.03c84.8-0.15,153.2-34.12,203.25-102.99
		c31.78-43.73,44.65-93.52,44.58-147.15C1175.12,834.68,1175.2,740.81,1175.2,646.93z"/>
	<path class="st1" d="M-3.6,962.53c3.45,19.4,5.35,39.23,10.61,58.13c40.19,144.57,133.87,233.64,280.34,265.98
		c23.6,5.21,48.46,6.49,72.75,6.56c188.63,0.51,377.26,0.65,565.88,0.16c126.24-0.33,227.16-51.89,300.47-154.71
		c43.24-60.65,63.26-129.59,63.35-204c0.22-192,2.12-384.02-0.57-575.98c-2.15-153.85-77.05-263.84-215.99-329.55
		c-32.07-15.16-66.68-23-102.04-26.88c-4.12-0.45-8.18-1.47-12.27-2.23c111.16,0,222.32,0,333.47,0c0,432,0,864,0,1296
		c-432,0-864,0-1296,0C-3.6,1184.84-3.6,1073.68-3.6,962.53z"/>
	<path class="st1" d="M327.35,0c-19.36,3.45-39.16,5.35-58.03,10.59C124.49,50.79,35.77,144.76,2.82,291.32
		c-2.93,13.03-4.32,26.41-6.42,39.63c0-110.32,0-220.63,0-330.95C106.72,0,217.03,0,327.35,0z"/>
	<path class="st1" d="M1175.2,646.93c0,93.87-0.09,187.75,0.03,281.62c0.07,53.62-12.8,103.42-44.58,147.15
		c-50.05,68.88-118.45,102.85-203.25,102.99c-189.43,0.33-378.86,0.46-568.29-0.03c-110.57-0.29-198.3-62.37-234.82-164.27
		c-9.93-27.7-13.14-56.46-13.16-85.6c-0.12-188.17-0.25-376.34,0.01-564.51c0.16-111.7,62.01-201.36,165.42-236.08
		c26.58-8.93,56.03-12.8,84.19-12.96c188.16-1.1,376.33-0.74,564.5-0.51c111.84,0.14,200.42,62.07,236.96,164.93
		c9.99,28.12,12.91,57.34,12.94,86.91C1175.26,460.03,1175.2,553.48,1175.2,646.93z M976.47,646.9
		c0.21-182.99-150.5-333.71-333.49-333.5c-182.83,0.2-332.19,149.27-333.18,332.55c-0.99,182.61,149.34,333.52,332.86,334.13
		C825.44,980.68,976.26,830.15,976.47,646.9z M992.3,216.61c-46.14-1.32-84.69,35.63-86.04,82.46
		c-1.28,44.49,35.9,83.48,81.04,85.01c46.97,1.59,85.81-35.13,87.29-82.53C1076,256.56,1038.57,217.93,992.3,216.61z"/>
	<path class="st0" d="M976.47,646.9c-0.22,183.25-151.04,333.78-333.82,333.17c-183.52-0.61-333.85-151.52-332.86-334.13
		c0.99-183.27,150.35-332.34,333.18-332.55C825.97,313.2,976.69,463.92,976.47,646.9z M642.9,865.07
		c120.17,0.34,218.24-97.52,218.58-218.1c0.33-120.19-97.51-218.24-218.1-218.57c-120.21-0.33-218.23,97.48-218.57,218.1
		C424.47,766.69,522.29,864.73,642.9,865.07z"/>
	<path class="st0" d="M992.3,216.61c46.27,1.32,83.7,39.96,82.29,84.94c-1.48,47.4-40.32,84.12-87.29,82.53
		c-45.14-1.53-82.32-40.53-81.04-85.01C907.61,252.24,946.16,215.29,992.3,216.61z"/>
	<path class="st1" d="M642.9,865.07c-120.6-0.34-218.43-98.38-218.09-218.57c0.34-120.62,98.36-218.43,218.57-218.1
		c120.6,0.33,218.44,98.38,218.1,218.57C861.14,767.55,763.06,865.41,642.9,865.07z"/>
</g>
</svg>
